<svg width="512" height="512" viewBox="0 0 512 512" fill="none" xmlns="http://www.w3.org/2000/svg">
<g clip-path="url(#clip0_1_13482)">
<path d="M430.92 0H81.08C36.3008 0 0 36.3008 0 81.08V430.92C0 475.699 36.3008 512 81.08 512H430.92C475.699 512 512 475.699 512 430.92V81.08C512 36.3008 475.699 0 430.92 0Z" fill="white"/>
<path d="M256 203.93V204.4C256 289.46 187.53 358.55 102.73 359.57C82.1001 336.12 76.9501 307.63 77.3001 282.6C77.6601 256.27 84.8401 230.47 97.4001 207.3L143.66 121.9C156.69 97.8304 191.41 98.3904 203.65 122.88L239.53 194.64C242.88 201.32 249.2 203.93 256.02 203.93H256Z" fill="#A588FF"/>
<path d="M256 407.82C172.67 407.82 126.99 387.17 102.73 359.58C82.1001 336.13 76.9501 307.64 77.3001 282.61C77.6601 256.28 84.8401 230.48 97.4001 207.31L143.66 121.91C156.69 97.8399 191.41 98.3999 203.65 122.89L239.53 194.65C242.88 201.33 249.2 203.94 256.02 203.94C262.84 203.94 269.15 201.33 272.51 194.65L308.39 122.89C320.63 98.3899 355.35 97.8399 368.38 121.91L414.64 207.31C427.2 230.48 434.37 256.28 434.74 282.61C435.47 337.09 408.6 407.82 256.03 407.82H256Z" stroke="#222222" stroke-width="12.81" stroke-miterlimit="10"/>
<path d="M307.92 297.779C291.69 302.209 275.11 296.969 264.31 285.559C259.77 280.759 252.22 280.759 247.68 285.559C236.88 296.979 220.29 302.219 204.08 297.789C185.88 292.799 173.5 277.109 171.86 259.389C171.12 251.449 178.44 245.159 186.14 247.269L253.01 265.559C254.97 266.099 257.03 266.099 258.99 265.559L325.85 247.269C333.54 245.159 340.86 251.449 340.13 259.389C338.5 277.119 326.1 292.809 307.92 297.799V297.779Z" fill="#222222"/>
<path d="M255.99 334.92C266.152 334.92 274.39 330.215 274.39 324.41C274.39 318.606 266.152 313.9 255.99 313.9C245.828 313.9 237.59 318.606 237.59 324.41C237.59 330.215 245.828 334.92 255.99 334.92Z" fill="#222222"/>
</g>
<defs>
<clipPath id="clip0_1_13482">
<rect width="512" height="512" fill="white"/>
</clipPath>
</defs>
</svg>
