<svg width="35" height="30" viewBox="0 0 35 30" fill="none" xmlns="http://www.w3.org/2000/svg">
<g id="logo" clip-path="url(#clip0_1_13603)">
<path id="Vector" d="M17.5006 10.0643V10.1089C17.5006 18.1727 11.0281 24.7226 3.01191 24.8193C1.06174 22.5962 0.57491 19.8953 0.607995 17.5224C0.642026 15.0262 1.32076 12.5804 2.50806 10.3838L6.87916 2.28774C8.1109 0.00586498 11.3939 0.0589541 12.5501 2.38065L15.9418 9.18362C16.2585 9.81689 16.8559 10.0643 17.5006 10.0643Z" fill="#D8C8FD"/>
<path id="Vector_2" d="M17.5006 29.3919C9.62339 29.3919 5.30523 27.4342 3.01191 24.8186C1.06174 22.5955 0.57491 19.8946 0.607995 17.5217C0.642026 15.0256 1.32076 12.5797 2.50806 10.3832L6.87916 2.28712C8.1109 0.00523833 11.394 0.0583274 12.5501 2.38002L15.9418 9.18299C16.2585 9.81627 16.8559 10.0637 17.5006 10.0637C18.1453 10.0637 18.7418 9.81627 19.0594 9.18299L22.4512 2.38002C23.6083 0.0573794 26.8904 0.00523833 28.1221 2.28712L32.4951 10.3832C33.6824 12.5797 34.3602 15.0256 34.3952 17.5217C34.4642 22.6865 31.9241 29.3919 17.5016 29.3919H17.5006Z" stroke="#222222" stroke-width="1.45729" stroke-miterlimit="10"/>
<path id="Vector_3" d="M22.4078 18.9613C20.8735 19.3813 19.3062 18.8845 18.2853 17.8028C17.8561 17.3478 17.1424 17.3478 16.7132 17.8028C15.6923 18.8854 14.124 19.3822 12.5917 18.9622C10.8712 18.4892 9.70094 17.0017 9.54591 15.3218C9.47595 14.5691 10.1679 13.9728 10.8958 14.1728L17.2171 15.9068C17.4024 15.958 17.5971 15.958 17.7824 15.9068L24.1027 14.1728C24.8296 13.9728 25.5216 14.5691 25.4526 15.3218C25.2985 17.0027 24.1263 18.4901 22.4078 18.9632V18.9613Z" fill="#222222"/>
<path id="Vector_4" d="M17.4991 22.481C18.4598 22.481 19.2385 22.0349 19.2385 21.4846C19.2385 20.9344 18.4598 20.4883 17.4991 20.4883C16.5385 20.4883 15.7598 20.9344 15.7598 21.4846C15.7598 22.0349 16.5385 22.481 17.4991 22.481Z" fill="#222222"/>
</g>
<defs>
<clipPath id="clip0_1_13603">
<rect width="35" height="30" fill="white"/>
</clipPath>
</defs>
</svg>
