<svg width="18" height="16" viewBox="0 0 18 16" fill="none" xmlns="http://www.w3.org/2000/svg">
<g id="&#225;&#132;&#141;&#225;&#133;&#181;&#225;&#134;&#171;&#225;&#132;&#146;&#225;&#133;&#161;&#225;&#132;&#144;&#225;&#133;&#179; 1" clip-path="url(#clip0_1_7970)">
<path id="Vector" d="M8.75 14.23C8.38 14.03 6.47 12.94 4.59 11.3C2.54 9.51 0.75 7.23 0.75 4.84C0.75 3.75 1.18 2.71 1.95 1.95C2.72 1.19 3.76 0.75 4.84 0.75C6.23 0.75 7.42 1.35 8.15 2.32L8.75 3.12L9.35 2.32C10.08 1.35 11.26 0.75 12.66 0.75C13.75 0.75 14.79 1.18 15.55 1.95C16.31 2.72 16.75 3.76 16.75 4.84C16.75 7.22 14.96 9.5 12.91 11.3C11.04 12.94 9.12 14.03 8.75 14.23Z" stroke="#AD71EA" stroke-width="1.5"/>
</g>
<defs>
<clipPath id="clip0_1_7970">
<rect width="17.5" height="15.08" fill="white"/>
</clipPath>
</defs>
</svg>
