<svg width="29" height="29" viewBox="0 0 29 29" fill="none" xmlns="http://www.w3.org/2000/svg">
<path d="M15.5868 14.4957L23.7474 6.3271C23.8913 6.18242 23.9721 5.98658 23.9719 5.78247C23.9718 5.57837 23.8908 5.38264 23.7466 5.23815C23.4581 4.95105 22.9499 4.9496 22.6584 5.2396L14.5 13.4082L6.33865 5.23742C6.04865 4.95105 5.54042 4.9525 5.25187 5.23887C5.18025 5.31021 5.12356 5.39509 5.08509 5.48858C5.04663 5.58206 5.02717 5.68227 5.02785 5.78335C5.02785 5.98925 5.1076 6.1821 5.25187 6.32492L13.4125 14.4949L5.2526 22.6657C5.1086 22.8106 5.02796 23.0067 5.02837 23.211C5.02878 23.4153 5.1102 23.611 5.25477 23.7554C5.3947 23.8938 5.59262 23.9736 5.79707 23.9736H5.80142C6.0066 23.9729 6.20452 23.8924 6.34155 23.7525L14.5 15.5839L22.6613 23.7546C22.8056 23.8982 22.9984 23.978 23.2029 23.978C23.304 23.9782 23.4041 23.9585 23.4976 23.92C23.591 23.8814 23.676 23.8248 23.7474 23.7533C23.8189 23.6818 23.8756 23.5969 23.9141 23.5034C23.9527 23.41 23.9724 23.3098 23.9721 23.2087C23.9721 23.0035 23.8924 22.81 23.7474 22.6671L15.5868 14.4957Z" fill="#A7A7A7"/>
</svg>
