<svg width="45" height="45" viewBox="0 0 45 45" fill="none" xmlns="http://www.w3.org/2000/svg">
<path d="M11.25 24.75C10.6533 24.75 10.081 24.5129 9.65901 24.091C9.23705 23.669 9 23.0967 9 22.5C9 21.9033 9.23705 21.331 9.65901 20.909C10.081 20.4871 10.6533 20.25 11.25 20.25H33.75C34.3467 20.25 34.919 20.4871 35.341 20.909C35.7629 21.331 36 21.9033 36 22.5C36 23.0967 35.7629 23.669 35.341 24.091C34.919 24.5129 34.3467 24.75 33.75 24.75H11.25Z" fill="#AD71EA"/>
<path d="M20.25 11.25C20.25 10.6533 20.4871 10.081 20.909 9.65901C21.331 9.23705 21.9033 9 22.5 9C23.0967 9 23.669 9.23705 24.091 9.65901C24.5129 10.081 24.75 10.6533 24.75 11.25V33.75C24.75 34.3467 24.5129 34.919 24.091 35.341C23.669 35.7629 23.0967 36 22.5 36C21.9033 36 21.331 35.7629 20.909 35.341C20.4871 34.919 20.25 34.3467 20.25 33.75V11.25Z" fill="#AD71EA"/>
</svg>
